<svg width="22" height="26" viewBox="0 0 22 26" fill="none" xmlns="http://www.w3.org/2000/svg">
<path fill-rule="evenodd" clip-rule="evenodd" d="M15.8889 2.6V0H18.3333V2.6H19.5556C20.9061 2.6 22 3.7635 22 5.2V23.4C22 24.8365 20.9061 26 19.5556 26H2.44444C1.09389 26 0 24.8365 0 23.4L0.0122222 5.2C0.0122222 3.7635 1.09389 2.6 2.44444 2.6H3.66667V0H6.11111V2.6H15.8889ZM4.44444 9.1C3.33987 9.1 2.44444 9.99543 2.44444 11.1V21.4C2.44444 22.5046 3.33988 23.4 4.44445 23.4H17.5556C18.6601 23.4 19.5556 22.5046 19.5556 21.4V11.1C19.5556 9.99543 18.6601 9.1 17.5556 9.1H4.44444Z" fill="black"/>
<path d="M17.1111 15.3C17.1111 14.7477 16.6634 14.3 16.1111 14.3H12C11.4477 14.3 11 14.7477 11 15.3V19.8C11 20.3523 11.4477 20.8 12 20.8H16.1111C16.6634 20.8 17.1111 20.3523 17.1111 19.8V15.3Z" fill="#FFB500"/>
</svg>
