<svg width="20" height="20" viewBox="0 0 20 20" fill="none" xmlns="http://www.w3.org/2000/svg">
<path fill-rule="evenodd" clip-rule="evenodd" d="M2.125 0.25C1.08947 0.25 0.25 1.08947 0.25 2.125V14.125C0.25 15.1605 1.08947 16 2.125 16H14.875L18.0606 19.4306C18.6635 20.0799 19.75 19.6533 19.75 18.7671V16V2.125C19.75 1.08947 18.9105 0.25 17.875 0.25H2.125ZM4 5.875C4 5.25368 4.50368 4.75 5.125 4.75H14.875C15.4963 4.75 16 5.25368 16 5.875C16 6.4963 15.4963 7 14.875 7H5.125C4.50368 7 4 6.4963 4 5.875ZM4 10.375C4 9.7537 4.50368 9.25 5.125 9.25H11.875C12.4963 9.25 13 9.7537 13 10.375C13 10.9963 12.4963 11.5 11.875 11.5H5.125C4.50368 11.5 4 10.9963 4 10.375Z" fill="white"/>
</svg>
