<svg width="20" height="19" viewBox="0 0 20 19" fill="none" xmlns="http://www.w3.org/2000/svg">
<path fill-rule="evenodd" clip-rule="evenodd" d="M2.6191 12.0017C1.99154 12.0017 1.40512 11.6895 1.05476 11.1688C0.478573 10.3126 0.48419 9.19121 1.06892 8.34078L1.61522 7.54623L1.10892 6.37218C0.80711 5.67235 0.880115 4.86731 1.30288 4.23314L2.12498 2.99998V1.50169C2.12498 0.67326 2.79656 0.0016873 3.62499 0.0016948L13 0.00174737C13.8284 0.00175487 14.5 0.673327 14.5 1.50175V11.3802C14.5 12.0054 14.3046 12.615 13.9412 13.1238L10.1025 18.498C9.94168 18.7232 9.64581 18.806 9.39148 18.697C8.06773 18.1296 7.34886 16.6878 7.69243 15.2892L8.49996 12.0018L2.6191 12.0017ZM18.2499 10.875C19.0783 10.875 19.7499 10.2034 19.7499 9.37503V1.5C19.7499 0.671572 19.0783 0 18.2499 0H15.9999V10.875H18.2499Z" fill="white"/>
</svg>
