<svg width="24" height="24" viewBox="0 0 24 24" fill="none" xmlns="http://www.w3.org/2000/svg">
<path d="M13.0001 17.62C12.9961 18.305 13.1251 18.9843 13.3801 19.62L13.4401 19.76H3.50008C3.20376 19.7601 2.91036 19.7015 2.63673 19.5878C2.36309 19.4741 2.11461 19.3075 1.90555 19.0975C1.69648 18.8875 1.53096 18.6383 1.41847 18.3642C1.30599 18.09 1.24876 17.7964 1.25008 17.5V17C1.24485 15.9389 1.49138 14.8916 1.96943 13.9442C2.44747 12.9968 3.1434 12.1763 4.00008 11.55C5.22763 12.6451 6.81511 13.2502 8.46008 13.2502C10.105 13.2502 11.6925 12.6451 12.9201 11.55C13.6807 12.0983 14.3178 12.8001 14.7901 13.61C14.2194 14.1092 13.7638 14.7262 13.4547 15.4185C13.1457 16.1108 12.9906 16.8619 13.0001 17.62Z" fill="white"/>
<path d="M8.5 11.75C11.3995 11.75 13.75 9.3995 13.75 6.5C13.75 3.60051 11.3995 1.25 8.5 1.25C5.60051 1.25 3.25 3.60051 3.25 6.5C3.25 9.3995 5.60051 11.75 8.5 11.75Z" fill="white"/>
<path d="M18.38 13.25C17.8053 13.2487 17.236 13.3607 16.7046 13.5798C16.1733 13.7988 15.6903 14.1205 15.2835 14.5264C14.8766 14.9323 14.5538 15.4145 14.3336 15.9454C14.1134 16.4762 14 17.0453 14 17.62C14.0001 18.1738 14.1018 18.7229 14.3 19.24C14.5942 19.9789 15.0839 20.6237 15.7168 21.1054C16.3496 21.587 17.1017 21.8873 17.8922 21.9739C18.6828 22.0605 19.482 21.9303 20.2042 21.5972C20.9263 21.264 21.5441 20.7405 21.9913 20.0829C22.4385 19.4253 22.6982 18.6583 22.7426 17.8642C22.7869 17.0702 22.6142 16.279 22.243 15.5757C21.8719 14.8723 21.3162 14.2833 20.6356 13.8718C19.955 13.4603 19.1753 13.2419 18.38 13.24V13.25ZM20.22 18.32H19.07V19.47C19.0496 19.64 18.9676 19.7965 18.8395 19.9101C18.7114 20.0237 18.5462 20.0865 18.375 20.0865C18.2038 20.0865 18.0386 20.0237 17.9105 19.9101C17.7824 19.7965 17.7004 19.64 17.68 19.47V18.32H16.53C16.36 18.2996 16.2034 18.2176 16.0898 18.0895C15.9762 17.9614 15.9135 17.7962 15.9135 17.625C15.9135 17.4538 15.9762 17.2885 16.0898 17.1605C16.2034 17.0324 16.36 16.9504 16.53 16.93H17.68V15.78C17.7004 15.61 17.7824 15.4534 17.9105 15.3398C18.0386 15.2262 18.2038 15.1635 18.375 15.1635C18.5462 15.1635 18.7114 15.2262 18.8395 15.3398C18.9676 15.4534 19.0496 15.61 19.07 15.78V16.93H20.22C20.39 16.9504 20.5466 17.0324 20.6602 17.1605C20.7738 17.2885 20.8365 17.4538 20.8365 17.625C20.8365 17.7962 20.7738 17.9614 20.6602 18.0895C20.5466 18.2176 20.39 18.2996 20.22 18.32Z" fill="white"/>
</svg>
