<svg width="42" height="42" viewBox="0 0 42 42" fill="none" xmlns="http://www.w3.org/2000/svg">
<path d="M17.1573 26.9283C16.938 26.9276 16.7271 26.8438 16.567 26.6939C15.7743 25.9413 15.143 25.0352 14.7116 24.0308C14.2802 23.0265 14.0578 21.9448 14.0578 20.8517C14.0578 19.7586 14.2802 18.6769 14.7116 17.6725C15.143 16.6681 15.7743 15.762 16.567 15.0094C16.7378 14.8709 16.9549 14.8024 17.1743 14.8177C17.3937 14.833 17.5991 14.931 17.749 15.092C17.8989 15.2529 17.9821 15.4647 17.9819 15.6847C17.9816 15.9046 17.8979 16.1162 17.7476 16.2768C17.1305 16.8683 16.6395 17.5785 16.3041 18.3647C15.9686 19.1509 15.7957 19.9969 15.7957 20.8517C15.7957 21.7065 15.9686 22.5524 16.3041 23.3386C16.6395 24.1248 17.1305 24.835 17.7476 25.4265C17.8746 25.5454 17.9629 25.6996 18.0011 25.8692C18.0394 26.0388 18.0259 26.216 17.9623 26.3778C17.8987 26.5396 17.7879 26.6786 17.6444 26.7768C17.5009 26.8749 17.3312 26.9277 17.1573 26.9283ZM13.6849 29.2548C13.8466 29.0922 13.9374 28.8722 13.9374 28.6428C13.9374 28.4135 13.8466 28.1935 13.6849 28.0308C12.7138 27.1042 11.9407 25.9903 11.4125 24.7563C10.8842 23.5223 10.6119 22.194 10.6119 20.8517C10.6119 19.5094 10.8842 18.1811 11.4125 16.9471C11.9407 15.7131 12.7138 14.5991 13.6849 13.6725C13.853 13.5102 13.9497 13.2878 13.9538 13.0542C13.9579 12.8206 13.869 12.5949 13.7067 12.4268C13.5443 12.2587 13.3219 12.162 13.0883 12.158C12.8547 12.1539 12.629 12.2428 12.4609 12.4051C11.3174 13.4947 10.4071 14.8052 9.78504 16.2571C9.16302 17.709 8.84229 19.2721 8.84229 20.8517C8.84229 22.4312 9.16302 23.9943 9.78504 25.4462C10.4071 26.8981 11.3174 28.2086 12.4609 29.2982C12.5445 29.3768 12.6427 29.4381 12.7501 29.4785C12.8574 29.5189 12.9717 29.5376 13.0863 29.5335C13.201 29.5295 13.3136 29.5028 13.4179 29.4549C13.5221 29.4071 13.6158 29.3391 13.6936 29.2548H13.6849ZM25.4303 26.6939C26.223 25.9413 26.8543 25.0352 27.2857 24.0308C27.717 23.0265 27.9395 21.9448 27.9395 20.8517C27.9395 19.7586 27.717 18.6769 27.2857 17.6725C26.8543 16.6681 26.223 15.762 25.4303 15.0094C25.347 14.9313 25.2493 14.8704 25.1425 14.8301C25.0357 14.7898 24.9221 14.7709 24.808 14.7745C24.6939 14.7782 24.5817 14.8042 24.4777 14.8512C24.3737 14.8982 24.28 14.9652 24.2019 15.0485C24.1238 15.1317 24.0629 15.2295 24.0226 15.3362C23.9823 15.443 23.9634 15.5567 23.967 15.6707C23.9707 15.7848 23.9967 15.897 24.0437 16.001C24.0907 16.105 24.1578 16.1987 24.241 16.2768C24.8614 16.8664 25.3554 17.576 25.693 18.3624C26.0305 19.1489 26.2046 19.9958 26.2046 20.8517C26.2046 21.7075 26.0305 22.5544 25.693 23.3409C25.3554 24.1274 24.8614 24.837 24.241 25.4265C24.0734 25.5834 23.9747 25.8002 23.9666 26.0296C23.9585 26.259 24.0415 26.4822 24.1976 26.6505C24.2795 26.7389 24.3789 26.8092 24.4895 26.857C24.6001 26.9049 24.7195 26.9291 24.84 26.9283C25.0593 26.9276 25.2702 26.8438 25.4303 26.6939ZM29.5277 29.2982C30.6745 28.2105 31.5879 26.9007 32.212 25.4485C32.8362 23.9964 33.1581 22.4323 33.1581 20.8517C33.1581 19.2711 32.8362 17.707 32.212 16.2548C31.5879 14.8027 30.6745 13.4928 29.5277 12.4051C29.3568 12.2666 29.1398 12.1981 28.9204 12.2134C28.701 12.2287 28.4956 12.3268 28.3457 12.4877C28.1958 12.6486 28.1126 12.8604 28.1128 13.0804C28.1131 13.3003 28.1968 13.5119 28.3471 13.6725C29.3183 14.5991 30.0913 15.7131 30.6196 16.9471C31.1478 18.1811 31.4201 19.5094 31.4201 20.8517C31.4201 22.194 31.1478 23.5223 30.6196 24.7563C30.0913 25.9903 29.3183 27.1042 28.3471 28.0308C28.1795 28.1876 28.0808 28.4045 28.0727 28.6339C28.0646 28.8632 28.1476 29.0865 28.3037 29.2548C28.3846 29.3421 28.4826 29.4118 28.5916 29.4596C28.7007 29.5074 28.8183 29.5322 28.9374 29.5326C29.1567 29.5319 29.3676 29.4481 29.5277 29.2982ZM22.7392 20.8517C22.7392 20.5083 22.6373 20.1726 22.4466 19.8871C22.2558 19.6016 21.9846 19.3791 21.6674 19.2476C21.3501 19.1162 21.0011 19.0819 20.6643 19.1488C20.3275 19.2158 20.0181 19.3812 19.7753 19.624C19.5325 19.8668 19.3671 20.1762 19.3002 20.513C19.2332 20.8497 19.2675 21.1988 19.399 21.5161C19.5304 21.8333 19.7529 22.1045 20.0384 22.2953C20.3239 22.486 20.6596 22.5879 21.003 22.5879C21.4634 22.5879 21.9051 22.4049 22.2307 22.0793C22.5563 21.7537 22.7392 21.3121 22.7392 20.8517Z" fill="white"/>
</svg>
