<svg width="20" height="19" viewBox="0 0 20 19" fill="none" xmlns="http://www.w3.org/2000/svg">
<path fill-rule="evenodd" clip-rule="evenodd" d="M17.3808 6.99833C18.0084 6.99833 18.5948 7.31056 18.9451 7.83121C19.5213 8.68741 19.5157 9.80881 18.931 10.6592L18.3847 11.4538L18.891 12.6278C19.1928 13.3277 19.1198 14.1327 18.697 14.7669L17.8749 16.0001V17.4983C17.8749 18.3268 17.2033 18.9983 16.3749 18.9983L6.99992 18.9983C6.17147 18.9983 5.4999 18.3267 5.4999 17.4983V7.61986C5.4999 6.99458 5.6953 6.38498 6.05867 5.87618L9.8974 0.501954C10.0582 0.276826 10.3541 0.194041 10.6084 0.303024C11.9321 0.870354 12.651 2.31222 12.3074 3.71086L11.4999 6.99826L17.3808 6.99833ZM1.75 8.12498C0.921572 8.12498 0.25 8.79661 0.25 9.62498V17.5C0.25 18.3284 0.921572 19 1.75 19H4V8.12498H1.75Z" fill="white"/>
</svg>
