<svg width="23" height="15" viewBox="0 0 23 15" fill="none" xmlns="http://www.w3.org/2000/svg">
<path d="M0.932494 12.7527C0.925605 13.0659 1.0164 13.3735 1.19241 13.6327C1.36842 13.8919 1.62093 14.0898 1.91461 14.1989C2.2083 14.308 2.52864 14.3229 2.83119 14.2416C3.13374 14.1602 3.40329 13.9865 3.60259 13.7448L11.5042 4.52132L19.4031 13.7448C19.526 13.912 19.682 14.0521 19.8615 14.1562C20.0411 14.2603 20.2402 14.3262 20.4464 14.3498C20.6526 14.3733 20.8614 14.3541 21.0598 14.2933C21.2582 14.2324 21.4419 14.1312 21.5994 13.9961C21.7569 13.861 21.8847 13.6947 21.975 13.5079C22.0652 13.321 22.116 13.1175 22.124 12.9102C22.132 12.7028 22.0972 12.496 22.0216 12.3028C21.9459 12.1095 21.8312 11.9339 21.6846 11.7871L12.6494 1.227C12.5079 1.06116 12.3323 0.928 12.1343 0.836688C11.9363 0.745377 11.7208 0.698092 11.5028 0.698092C11.2848 0.698092 11.0694 0.745377 10.8714 0.836688C10.6734 0.928 10.4976 1.06116 10.3561 1.227L1.3122 11.7871C1.07525 12.0538 0.940889 12.396 0.932494 12.7527Z" fill="#FFB500"/>
</svg>
