<svg width="23" height="15" viewBox="0 0 23 15" fill="none" xmlns="http://www.w3.org/2000/svg">
<path d="M0.932494 1.96752C0.925605 1.65429 1.0164 1.3467 1.19241 1.08751C1.36842 0.828317 1.62093 0.630403 1.91461 0.521284C2.2083 0.412164 2.52864 0.397262 2.83119 0.478646C3.13374 0.560031 3.40329 0.73366 3.60259 0.975393L11.5042 10.1989L19.4031 0.975393C19.526 0.808174 19.682 0.668132 19.8615 0.564038C20.0411 0.459943 20.2402 0.394038 20.4464 0.37045C20.6526 0.346861 20.8614 0.366098 21.0598 0.426954C21.2582 0.487811 21.4419 0.588977 21.5994 0.724117C21.7569 0.859257 21.8847 1.02546 21.975 1.21232C22.0652 1.39917 22.116 1.60266 22.124 1.81003C22.132 2.0174 22.0972 2.22419 22.0216 2.41745C21.9459 2.61071 21.8312 2.78627 21.6846 2.93314L12.6494 13.4932C12.5079 13.659 12.3323 13.7922 12.1343 13.8835C11.9363 13.9748 11.7208 14.0221 11.5028 14.0221C11.2848 14.0221 11.0694 13.9748 10.8714 13.8835C10.6734 13.7922 10.4976 13.659 10.3561 13.4932L1.3122 2.93314C1.07525 2.66638 0.940889 2.32422 0.932494 1.96752Z" fill="#FFB500"/>
</svg>
