<svg width="38" height="38" viewBox="0 0 38 38" fill="none" xmlns="http://www.w3.org/2000/svg">
<g clip-path="url(#clip0_77_69)">
<path d="M27.8 12.2H19L16.8 10H10.2C8.99 10 8.011 10.99 8.011 12.2L8 25.4C8 26.61 8.99 27.6 10.2 27.6H27.8C29.01 27.6 30 26.61 30 25.4V14.4C30 13.19 29.01 12.2 27.8 12.2ZM28.4286 26.0286H9.57143V13.7714H28.4286V26.0286Z" fill="white"/>
<g clip-path="url(#clip1_77_69)">
<path d="M18.948 15.1793L15.5429 18.5843C15.4457 18.6815 15.3923 18.811 15.3923 18.9491C15.3923 19.0874 15.4458 19.2169 15.5429 19.3141L15.8521 19.6232C15.9492 19.7204 16.0788 19.7739 16.217 19.7739C16.3551 19.7739 16.4891 19.7204 16.5862 19.6232L18.5769 17.6368V23.9478C18.5769 24.2323 18.7997 24.4572 19.0843 24.4572H19.5215C19.8061 24.4572 20.0513 24.2323 20.0513 23.9478V17.6143L22.0532 19.6232C22.1504 19.7203 22.2765 19.7738 22.4147 19.7738C22.5528 19.7738 22.6807 19.7203 22.7778 19.6232L23.0861 19.314C23.1833 19.2168 23.2362 19.0874 23.2362 18.9491C23.2362 18.8109 23.1826 18.6814 23.0854 18.5842L19.6804 15.1792C19.5829 15.0818 19.4527 15.0282 19.3144 15.0286C19.1755 15.0283 19.0453 15.0818 18.948 15.1793Z" fill="white"/>
</g>
</g>
<defs>
<clipPath id="clip0_77_69">
<rect width="38" height="38" fill="white"/>
</clipPath>
<clipPath id="clip1_77_69">
<rect width="9.42857" height="9.42857" fill="white" transform="matrix(0 -1 1 0 14.6001 24.4572)"/>
</clipPath>
</defs>
</svg>
