<svg width="38" height="38" viewBox="0 0 38 38" fill="none" xmlns="http://www.w3.org/2000/svg">
<path d="M19.5013 20.157L16.3822 22.574C16.1589 22.7401 15.9046 22.8278 15.6463 22.8278C14.9869 22.8278 14.4707 22.2654 14.4707 21.5474V16.7289C14.4707 16.0108 14.9869 15.4485 15.6463 15.4485C15.9046 15.4485 16.1589 15.5362 16.3872 15.7059L19.5566 18.1113C19.8648 18.3406 20.0422 18.6948 20.0422 19.0831C20.0422 19.5033 19.8362 19.9076 19.5013 20.157ZM15.7651 16.8587L15.7709 21.4102L18.7082 19.1337L18.728 19.1065L15.7651 16.8587Z" fill="white"/>
<path d="M29.2456 24.6677C28.7751 24.9221 28.2081 24.9004 27.7659 24.6119L25.1514 22.9151V23.7646C25.1514 25.5513 23.703 27 21.9161 27H11.2356C9.44867 27 8.00024 25.5513 8.00024 23.7646V14.5109C8.00024 12.7242 9.44867 11.2755 11.2356 11.2755H21.9161C23.703 11.2755 25.1514 12.7242 25.1514 14.5109V15.3647L27.7648 13.6647C28.0026 13.5096 28.2763 13.4312 28.5513 13.4312C28.7891 13.4312 29.0281 13.4898 29.2459 13.6078C29.7112 13.8599 30.0002 14.342 30.0002 14.8659V23.4093C30.0002 23.9335 29.7112 24.4155 29.2456 24.6677ZM23.8573 14.5109C23.8573 13.4406 22.9866 12.5696 21.9161 12.5696H11.2356C10.1653 12.5696 9.29439 13.4403 9.29439 14.5109V23.7646C9.29439 24.8349 10.165 25.7059 11.2356 25.7059H21.9161C22.9864 25.7059 23.8573 24.8352 23.8573 23.7646V14.5109ZM28.7061 14.8659C28.7061 14.8136 28.6802 14.7732 28.6294 14.7457C28.598 14.7287 28.5367 14.7061 28.471 14.7487L25.1514 16.9086V21.3719L28.4718 23.5262C28.5361 23.5683 28.5977 23.546 28.6294 23.5289C28.6802 23.5014 28.7061 23.461 28.7061 23.4085V14.8659Z" fill="white"/>
</svg>
