<svg width="8" height="12" viewBox="0 0 8 12" fill="none" xmlns="http://www.w3.org/2000/svg">
<path d="M1.11199 0.141803C0.938816 0.137995 0.768762 0.188194 0.625466 0.2855C0.48217 0.382806 0.372751 0.522409 0.312424 0.684776C0.252097 0.847142 0.243857 1.02425 0.288852 1.19151C0.333846 1.35878 0.429838 1.5078 0.563482 1.61799L5.66277 5.98647L0.563482 10.3534C0.471034 10.4214 0.39361 10.5076 0.336061 10.6069C0.278511 10.7061 0.242075 10.8162 0.229034 10.9302C0.215993 11.0442 0.226628 11.1596 0.260273 11.2693C0.293919 11.379 0.349849 11.4806 0.424562 11.5677C0.499275 11.6548 0.591161 11.7254 0.694467 11.7753C0.797772 11.8252 0.910271 11.8532 1.02492 11.8577C1.13956 11.8621 1.25389 11.8429 1.36073 11.8011C1.46758 11.7592 1.56464 11.6958 1.64584 11.6148L7.48406 6.6196C7.57574 6.54136 7.64936 6.44425 7.69984 6.3348C7.75032 6.22536 7.77646 6.10623 7.77646 5.9857C7.77646 5.86517 7.75032 5.74605 7.69984 5.6366C7.64936 5.52715 7.57574 5.42995 7.48406 5.35171L1.64584 0.351726C1.49836 0.220728 1.30919 0.146444 1.11199 0.141803Z" fill="#292B2F"/>
</svg>
