<svg width="24" height="24" viewBox="0 0 24 24" fill="none" xmlns="http://www.w3.org/2000/svg">
<path fill-rule="evenodd" clip-rule="evenodd" d="M19.3808 8.99827C20.0084 8.99827 20.5948 9.3105 20.9451 9.83115C21.5213 10.6873 21.5157 11.8087 20.931 12.6592L20.3847 13.4537L20.891 14.6278C21.1928 15.3276 21.1198 16.1326 20.697 16.7668L19.8749 18V19.4983C19.8749 20.3267 19.2033 20.9983 18.3749 20.9983L8.99992 20.9982C8.17147 20.9982 7.4999 20.3266 7.4999 19.4982V9.6198C7.4999 8.99452 7.6953 8.38492 8.05867 7.87612L11.8974 2.50189C12.0582 2.27677 12.3541 2.19398 12.6084 2.30296C13.9321 2.87029 14.651 4.31216 14.3074 5.7108L13.4999 8.9982L19.3808 8.99827ZM3.75 10.1249C2.92157 10.1249 2.25 10.7965 2.25 11.6249V19.4999C2.25 20.3284 2.92157 20.9999 3.75 20.9999H6V10.1249H3.75Z" fill="white"/>
</svg>
