<svg width="17" height="18" viewBox="0 0 17 18" fill="none" xmlns="http://www.w3.org/2000/svg">
<path d="M16.8212 11.248C16.7479 11.1749 16.6553 11.124 16.5543 11.1013C16.4533 11.0786 16.3479 11.085 16.2503 11.1198C14.9396 11.5871 13.5231 11.6729 12.1655 11.3673C10.808 11.0616 9.56497 10.377 8.581 9.39295C7.59704 8.40892 6.91249 7.1659 6.60689 5.8083C6.30129 4.45069 6.38718 3.03424 6.85459 1.72351C6.88932 1.62595 6.89569 1.52055 6.87296 1.41953C6.85023 1.3185 6.79933 1.22598 6.72617 1.1527C6.653 1.07942 6.56057 1.02838 6.45957 1.00549C6.35858 0.982604 6.25317 0.98881 6.15556 1.02339C4.97384 1.44069 3.90144 2.11911 3.01817 3.00816C1.43474 4.59278 0.545475 6.74139 0.545899 8.98153C0.546322 11.2217 1.4364 13.3699 3.02042 14.954C4.60445 16.538 6.75272 17.4281 8.99286 17.4285C11.233 17.4289 13.3816 16.5397 14.9662 14.9562C15.8554 14.0728 16.5338 13.0002 16.951 11.8183C16.9855 11.7207 16.9915 11.6153 16.9686 11.5144C16.9456 11.4134 16.8945 11.3211 16.8212 11.248Z" fill="white"/>
</svg>
