<svg width="24" height="24" viewBox="0 0 24 24" fill="none" xmlns="http://www.w3.org/2000/svg">
<g clip-path="url(#clip0_78_840)">
<path d="M18.4608 22.1953H3.33609C1.49658 22.1953 0 20.6987 0 18.8592V8.65641C0 7.92783 0.230719 7.23553 0.667219 6.65447C1.08914 6.09286 1.68956 5.6708 2.35795 5.46605C2.67305 5.36939 3.00216 5.32031 3.33605 5.32031H5.94183C7.14745 5.32031 8.19417 6.17845 8.43066 7.36073C8.60161 8.2155 9.35836 8.83594 10.23 8.83594H13.2094C13.4036 8.83594 13.5609 8.9933 13.5609 9.1875C13.5609 9.3817 13.4036 9.53906 13.2094 9.53906H10.23C9.02437 9.53906 7.97766 8.68092 7.74117 7.49864C7.57022 6.64387 6.81347 6.02344 5.94183 6.02344H3.33609C3.07219 6.02344 2.81245 6.06206 2.56406 6.13828C1.45092 6.4793 0.703125 7.49119 0.703125 8.65641V18.8592C0.703125 20.3111 1.88423 21.4922 3.33609 21.4922H18.4608C19.9126 21.4922 21.0938 20.3111 21.0938 18.8592V12.172C21.0938 10.7202 19.9126 9.53906 18.4608 9.53906H16.0219C15.8277 9.53906 15.6703 9.3817 15.6703 9.1875C15.6703 8.9933 15.8277 8.83594 16.0219 8.83594H18.4608C20.3003 8.83594 21.7969 10.3325 21.7969 12.172V18.8592C21.7969 20.6987 20.3003 22.1953 18.4608 22.1953Z" fill="white" stroke="white" stroke-width="0.5"/>
<path d="M21.4452 18.5495C21.2947 18.5495 21.1555 18.4521 21.1092 18.3008C21.0523 18.1151 21.1567 17.9185 21.3424 17.8617C22.4554 17.5208 23.2031 16.5089 23.2031 15.3436V8.65641C23.2031 7.20459 22.022 6.02344 20.5702 6.02344H12.3394C11.1337 6.02344 10.087 5.1653 9.85055 3.98302C9.67959 3.1282 8.92284 2.50781 8.05125 2.50781H5.44547C3.99361 2.50781 2.8125 3.68897 2.8125 5.14078V5.80219C2.8125 5.99639 2.65514 6.15375 2.46094 6.15375C2.26673 6.15375 2.10938 5.99639 2.10938 5.80219V5.14078C2.10938 3.30127 3.60595 1.80469 5.44547 1.80469H8.05125C9.25687 1.80469 10.3036 2.66283 10.5401 3.84511C10.711 4.69988 11.4678 5.32031 12.3394 5.32031H20.5702C22.4097 5.32031 23.9063 6.81689 23.9063 8.65641V15.3436C23.9063 16.82 22.9587 18.1021 21.5483 18.534C21.5139 18.5445 21.4793 18.5495 21.4452 18.5495Z" fill="white" stroke="white" stroke-width="0.5"/>
<path d="M14.6157 9.53906C14.8099 9.53906 14.9673 9.38166 14.9673 9.1875C14.9673 8.99334 14.8099 8.83594 14.6157 8.83594C14.4216 8.83594 14.2642 8.99334 14.2642 9.1875C14.2642 9.38166 14.4216 9.53906 14.6157 9.53906Z" fill="white" stroke="white" stroke-width="0.3"/>
<path d="M10.723 17.3724L13.4377 15.7971C13.8395 15.5639 13.8395 14.9815 13.4377 14.7484L10.723 13.1731C10.3209 12.9397 9.81812 13.2311 9.81812 13.6974V16.848C9.81812 17.3143 10.3209 17.6057 10.723 17.3724Z" stroke="white" stroke-width="0.8" stroke-miterlimit="10" stroke-linejoin="round"/>
</g>
<defs>
<clipPath id="clip0_78_840">
<rect width="24" height="24" fill="white"/>
</clipPath>
</defs>
</svg>
