<svg width="24" height="24" viewBox="0 0 24 24" fill="none" xmlns="http://www.w3.org/2000/svg">
<g clip-path="url(#clip0_78_863)">
<path d="M22.41 9.38297L21.0759 9.14859C20.9085 8.6131 20.6937 8.09358 20.4342 7.5961L21.2114 6.48844C21.7483 5.7247 21.6577 4.68539 20.9967 4.0261L19.9734 3.00281C19.3141 2.34183 18.2748 2.25122 17.5111 2.78813L16.403 3.56531C15.9055 3.30581 15.386 3.09108 14.8505 2.92359L14.6161 1.58953C14.4548 0.670595 13.6568 0.000282547 12.7238 1.29704e-06H11.2763C10.3425 -0.00107683 9.54356 0.670079 9.38344 1.59L9.14906 2.92359C8.61356 3.09103 8.094 3.30577 7.59656 3.56531L6.48891 2.78813C5.72517 2.25122 4.68586 2.34183 4.02656 3.00281L3.00281 4.02656C2.34183 4.68586 2.25122 5.72517 2.78813 6.48891L3.56485 7.59656C3.30535 8.09405 3.09061 8.61356 2.92313 9.14906L1.58953 9.38344C0.669798 9.54375 -0.00107683 10.3427 1.29758e-06 11.2763V12.7238C9.50476e-05 13.6571 0.670689 14.4554 1.59 14.6166L2.92359 14.8509C3.09103 15.3864 3.30577 15.906 3.56531 16.4034L2.78813 17.5111C2.25122 18.2748 2.34183 19.3141 3.00281 19.9734L4.02656 20.9972C4.68586 21.6582 5.72517 21.7488 6.48891 21.2119L7.59656 20.4352C8.094 20.6947 8.61356 20.9095 9.14906 21.0769L9.38344 22.4109C9.54394 23.3305 10.3428 24.0011 11.2763 24H12.7238C13.6573 24.0011 14.4563 23.3302 14.6166 22.4105C14.6748 22.079 14.4533 21.763 14.1218 21.7048C13.7903 21.6465 13.4744 21.868 13.4161 22.1995C13.3571 22.5358 13.0651 22.7812 12.7238 22.7813H11.2763C10.9347 22.7814 10.6424 22.536 10.5834 22.1995L10.2839 20.4919C10.2433 20.259 10.0718 20.0707 9.84375 20.0086C9.15094 19.8232 8.48527 19.548 7.86375 19.1902C7.65806 19.071 7.40184 19.0823 7.2075 19.2192L5.78953 20.2139C5.50992 20.4099 5.12995 20.3767 4.8886 20.1352L3.86485 19.1114C3.62335 18.87 3.59011 18.4901 3.7861 18.2105L4.78125 16.793C4.91813 16.5986 4.92947 16.3424 4.81031 16.1367C4.45214 15.5151 4.17666 14.8493 3.99094 14.1563C3.92963 13.9273 3.7411 13.7547 3.50766 13.7138L1.80047 13.4142C1.46489 13.3554 1.21978 13.0644 1.21875 12.7238V11.2763C1.21885 10.9349 1.46419 10.6429 1.80047 10.5839L3.50813 10.2844C3.74091 10.2435 3.92906 10.0718 3.99094 9.84375C4.17656 9.1508 4.45186 8.48499 4.80984 7.86328C4.929 7.6576 4.91766 7.40138 4.78078 7.20703L3.7861 5.78953C3.59011 5.50992 3.62335 5.12995 3.86485 4.8886L4.8886 3.86485C5.12995 3.62335 5.50992 3.59011 5.78953 3.7861L7.20703 4.78125C7.40138 4.91813 7.6576 4.92947 7.86328 4.81031C8.48494 4.45224 9.15075 4.17694 9.84375 3.99141C10.0727 3.93005 10.2453 3.74156 10.2863 3.50813L10.5858 1.80047C10.6446 1.46489 10.9356 1.21978 11.2763 1.21875H12.7238C13.0653 1.21861 13.3576 1.464 13.4166 1.80047L13.7161 3.50813C13.7567 3.74095 13.9283 3.9293 14.1563 3.99141C14.8491 4.17708 15.5147 4.45238 16.1363 4.81031C16.3419 4.92947 16.5982 4.91813 16.7925 4.78125L18.2105 3.78656C18.4901 3.59058 18.87 3.62381 19.1114 3.86531L20.1352 4.88906C20.3767 5.13042 20.4099 5.51039 20.2139 5.79L19.2188 7.2075C19.0819 7.40184 19.0705 7.65806 19.1897 7.86375C19.5476 8.48531 19.8229 9.15094 20.0086 9.84375C20.0701 10.0725 20.2586 10.2449 20.4919 10.2858L22.1995 10.5853C22.5353 10.6442 22.7805 10.9354 22.7813 11.2763V12.7238C22.7814 13.0653 22.536 13.3576 22.1995 13.4166C21.868 13.4748 21.6465 13.7908 21.7048 14.1223C21.763 14.4538 22.079 14.6753 22.4105 14.617C23.3303 14.4567 24.0013 13.6575 24 12.7238V11.2763C24.0001 10.3428 23.3295 9.54417 22.41 9.38297Z" fill="white"/>
<path d="M22.2688 18.3529L18.3707 14.3362C17.8609 13.8138 17.6056 13.0944 17.6718 12.3675C17.9515 9.16718 15.584 6.34605 12.3837 6.0663C12.0439 6.03659 11.7021 6.03682 11.3624 6.06701C11.0961 6.08866 10.846 6.20313 10.6555 6.39045C10.1922 6.84616 10.185 7.59091 10.6396 8.05545L12.3191 9.76779C12.6604 10.1155 12.6553 10.674 12.3077 11.0153C12.3076 11.0154 12.3075 11.0155 12.3074 11.0156L11.0071 12.2911C10.6592 12.6321 10.1008 12.6266 9.75973 12.2789L8.0802 10.5665C7.62448 10.1032 6.87973 10.0961 6.4152 10.5506C6.224 10.7374 6.10451 10.9854 6.0777 11.2514C5.73214 14.4452 8.04115 17.3145 11.235 17.66C11.5743 17.6967 11.9162 17.7035 12.2568 17.6803C12.9832 17.6282 13.6962 17.8963 14.2082 18.4144L18.1039 22.4283C18.3384 22.6698 18.7242 22.6756 18.9657 22.4411C19.2073 22.2067 19.2131 21.8209 18.9786 21.5794L15.0805 17.5631C14.319 16.7895 13.2571 16.3879 12.1743 16.4639C9.64081 16.6375 7.44631 14.7245 7.27268 12.191C7.2567 11.9577 7.25853 11.7235 7.27817 11.4904L8.88879 13.1311C9.27818 13.5302 9.81106 13.7569 10.3686 13.7606H10.3893C10.9391 13.7623 11.4674 13.5468 11.8593 13.1611L13.1596 11.8856C13.9879 11.0731 14.0007 9.74299 13.1882 8.91466L11.5775 7.27404C14.1115 7.10852 16.2999 9.02852 16.4655 11.5625C16.4807 11.796 16.4781 12.0303 16.4577 12.2634C16.3607 13.3433 16.7409 14.4117 17.4984 15.1875L21.3942 19.2019C21.6286 19.4434 22.0144 19.4492 22.2559 19.2147C22.4974 18.9803 22.5032 18.5945 22.2688 18.3529Z" fill="white"/>
</g>
<defs>
<clipPath id="clip0_78_863">
<rect width="24" height="24" fill="white"/>
</clipPath>
</defs>
</svg>
