<svg width="24" height="24" viewBox="0 0 24 24" fill="none" xmlns="http://www.w3.org/2000/svg">
<path d="M20 22.75H10C9.80109 22.75 9.61032 22.671 9.46967 22.5303C9.32902 22.3897 9.25 22.1989 9.25 22C9.25 21.8011 9.32902 21.6103 9.46967 21.4697C9.61032 21.329 9.80109 21.25 10 21.25H20C20.3314 21.2495 20.649 21.1176 20.8833 20.8833C21.1176 20.649 21.2495 20.3314 21.25 20V8C21.2495 7.66864 21.1176 7.35101 20.8833 7.1167C20.649 6.88239 20.3314 6.75053 20 6.75H4C3.66864 6.75053 3.35101 6.88239 3.1167 7.1167C2.88239 7.35101 2.75053 7.66864 2.75 8V20C2.75053 20.3314 2.88239 20.649 3.1167 20.8833C3.35101 21.1176 3.66864 21.2495 4 21.25H5C5.19891 21.25 5.38968 21.329 5.53033 21.4697C5.67098 21.6103 5.75 21.8011 5.75 22C5.75 22.1989 5.67098 22.3897 5.53033 22.5303C5.38968 22.671 5.19891 22.75 5 22.75H4C3.27082 22.7495 2.57165 22.4596 2.05604 21.944C1.54043 21.4283 1.25053 20.7292 1.25 20V8C1.25053 7.27082 1.54043 6.57165 2.05604 6.05604C2.57165 5.54043 3.27082 5.25053 4 5.25H20C20.7292 5.25053 21.4284 5.54043 21.944 6.05604C22.4596 6.57165 22.7495 7.27082 22.75 8V20C22.7495 20.7292 22.4596 21.4283 21.944 21.944C21.4284 22.4596 20.7292 22.7495 20 22.75Z" fill="white"/>
<path d="M16 3.75H5C4.80109 3.75 4.61032 3.67098 4.46967 3.53033C4.32902 3.38968 4.25 3.19891 4.25 3C4.25 2.80109 4.32902 2.61032 4.46967 2.46967C4.61032 2.32902 4.80109 2.25 5 2.25H16C16.1989 2.25 16.3897 2.32902 16.5303 2.46967C16.671 2.61032 16.75 2.80109 16.75 3C16.75 3.19891 16.671 3.38968 16.5303 3.53033C16.3897 3.67098 16.1989 3.75 16 3.75Z" fill="white"/>
<path d="M10 18.946C9.53664 18.9457 9.09228 18.7618 8.76427 18.4346C8.43625 18.1073 8.25132 17.6634 8.25 17.2V10.8C8.25066 10.4879 8.33478 10.1816 8.49364 9.91295C8.65251 9.64428 8.88034 9.42299 9.15352 9.27202C9.4267 9.12105 9.73529 9.04588 10.0473 9.05432C10.3593 9.06276 10.6634 9.15448 10.928 9.32L16.041 12.52C16.2925 12.6775 16.4998 12.8963 16.6435 13.1559C16.7872 13.4154 16.8626 13.7073 16.8626 14.004C16.8626 14.3007 16.7872 14.5926 16.6435 14.8521C16.4998 15.1117 16.2925 15.3305 16.041 15.488L12.6 17.636C12.5165 17.6882 12.4235 17.7234 12.3264 17.7397C12.2292 17.756 12.1298 17.7529 12.0339 17.7308C11.9379 17.7086 11.8472 17.6678 11.767 17.6106C11.6868 17.5534 11.6187 17.481 11.5665 17.3975C11.5143 17.314 11.4791 17.221 11.4628 17.1239C11.4465 17.0267 11.4496 16.9273 11.4717 16.8314C11.5164 16.6375 11.6363 16.4694 11.805 16.364L15.248 14.212C15.2837 14.1894 15.3132 14.158 15.3335 14.121C15.3539 14.0839 15.3646 14.0423 15.3646 14C15.3646 13.9577 15.3539 13.9161 15.3335 13.879C15.3132 13.842 15.2837 13.8106 15.248 13.788L10.135 10.588C10.0971 10.5642 10.0536 10.551 10.0089 10.5498C9.96424 10.5485 9.92004 10.5593 9.88093 10.581C9.84182 10.6026 9.80923 10.6343 9.78655 10.6729C9.76387 10.7114 9.75194 10.7553 9.752 10.8V17.2C9.75194 17.2447 9.76387 17.2886 9.78655 17.3271C9.80923 17.3657 9.84182 17.3974 9.88093 17.419C9.92004 17.4407 9.96424 17.4515 10.0089 17.4502C10.0536 17.449 10.0971 17.4358 10.135 17.412C10.3037 17.3059 10.5076 17.2712 10.7019 17.3154C10.8962 17.3597 11.0649 17.4793 11.171 17.648C11.2771 17.8167 11.3118 18.0206 11.2676 18.2149C11.2233 18.4092 11.1037 18.5779 10.935 18.684C10.6543 18.8578 10.3301 18.9487 10 18.946Z" fill="white"/>
<path d="M8 22.75H7C6.80109 22.75 6.61032 22.671 6.46967 22.5303C6.32902 22.3897 6.25 22.1989 6.25 22C6.25 21.8011 6.32902 21.6103 6.46967 21.4697C6.61032 21.329 6.80109 21.25 7 21.25H8C8.19891 21.25 8.38968 21.329 8.53033 21.4697C8.67098 21.6103 8.75 21.8011 8.75 22C8.75 22.1989 8.67098 22.3897 8.53033 22.5303C8.38968 22.671 8.19891 22.75 8 22.75Z" fill="white"/>
<path d="M19 3.75H18C17.8011 3.75 17.6103 3.67098 17.4697 3.53033C17.329 3.38968 17.25 3.19891 17.25 3C17.25 2.80109 17.329 2.61032 17.4697 2.46967C17.6103 2.32902 17.8011 2.25 18 2.25H19C19.1989 2.25 19.3897 2.32902 19.5303 2.46967C19.671 2.61032 19.75 2.80109 19.75 3C19.75 3.19891 19.671 3.38968 19.5303 3.53033C19.3897 3.67098 19.1989 3.75 19 3.75Z" fill="white"/>
</svg>
