<svg width="19" height="20" viewBox="0 0 19 20" fill="none" xmlns="http://www.w3.org/2000/svg">
<path d="M9.31353 3.53149C9.61491 3.53149 9.85924 3.28715 9.85924 2.98578V1.23223C9.85924 0.930855 9.61491 0.686523 9.31353 0.686523C9.01215 0.686523 8.76782 0.930855 8.76782 1.23223V2.98578C8.76782 3.28715 9.01215 3.53149 9.31353 3.53149Z" fill="#6C6C6C"/>
<path d="M3.96788 5.42606C4.18099 5.63917 4.5265 5.63917 4.73962 5.42606C4.95274 5.21294 4.95274 4.86743 4.73962 4.65431L3.49969 3.41435C3.28658 3.20124 2.94107 3.20124 2.72795 3.41435C2.51484 3.62747 2.51484 3.97298 2.72795 4.1861L3.96788 5.42606Z" fill="#6C6C6C"/>
<path d="M3.96763 14.574L2.72771 15.814C2.51459 16.0271 2.51459 16.3726 2.72771 16.5857C2.94083 16.7988 3.28633 16.7988 3.49945 16.5857L4.73941 15.3457C4.95253 15.1326 4.95253 14.7871 4.73941 14.574C4.52629 14.3609 4.18075 14.3609 3.96763 14.574Z" fill="#6C6C6C"/>
<path d="M9.31353 16.4684C9.01215 16.4684 8.76782 16.7127 8.76782 17.0141V18.7676C8.76782 19.069 9.01215 19.3133 9.31353 19.3133C9.61491 19.3133 9.85924 19.069 9.85924 18.7676V17.0141C9.85924 16.7127 9.61491 16.4684 9.31353 16.4684Z" fill="#6C6C6C"/>
<path d="M2.84496 9.99993C2.84496 9.69856 2.60063 9.45422 2.29925 9.45422H0.545709C0.244332 9.45422 0 9.69856 0 9.99993C0 10.3013 0.244332 10.5456 0.545709 10.5456H2.29925C2.60063 10.5456 2.84496 10.3013 2.84496 9.99993Z" fill="#6C6C6C"/>
<path d="M9.31335 5.36267C6.75634 5.36267 4.67603 7.44299 4.67603 10C4.67603 12.557 6.75634 14.6373 9.31335 14.6373C11.8704 14.6373 13.9507 12.557 13.9507 10C13.9507 7.44299 11.8704 5.36267 9.31335 5.36267Z" fill="#6C6C6C"/>
<path d="M14.6591 5.42593L15.8991 4.18597C16.1122 3.97286 16.1122 3.62735 15.8991 3.41423C15.686 3.20112 15.3405 3.20112 15.1273 3.41423L13.8874 4.65419C13.6743 4.86731 13.6743 5.21282 13.8874 5.42593C14.1005 5.63905 14.446 5.63905 14.6591 5.42593Z" fill="#6C6C6C"/>
<path d="M14.6591 14.5738C14.446 14.3607 14.1005 14.3607 13.8874 14.5738C13.6743 14.7869 13.6743 15.1324 13.8874 15.3455L15.1273 16.5855C15.3405 16.7986 15.686 16.7986 15.8991 16.5855C16.1122 16.3724 16.1122 16.0269 15.8991 15.8137L14.6591 14.5738Z" fill="#6C6C6C"/>
<path d="M18.0812 9.45422H16.3277C16.0263 9.45422 15.782 9.69856 15.782 9.99993C15.782 10.3013 16.0263 10.5456 16.3277 10.5456H18.0812C18.3826 10.5456 18.6269 10.3013 18.6269 9.99993C18.6269 9.69856 18.3826 9.45422 18.0812 9.45422Z" fill="#6C6C6C"/>
</svg>
