<svg width="24" height="24" viewBox="0 0 24 24" fill="none" xmlns="http://www.w3.org/2000/svg">
<mask id="mask0_78_820" style="mask-type:luminance" maskUnits="userSpaceOnUse" x="0" y="0" width="24" height="24">
<path d="M0 0H24V24H0V0Z" fill="white"/>
</mask>
<g mask="url(#mask0_78_820)">
<path d="M11.0445 12.2532L15.0689 9.91793C15.6645 9.57232 15.6645 8.70893 15.0689 8.36332L11.0445 6.02806C10.4484 5.68216 9.70312 6.11412 9.70312 6.80538V11.4759C9.70312 12.1671 10.4484 12.5991 11.0445 12.2532Z" stroke="white" stroke-width="1.5" stroke-miterlimit="10" stroke-linejoin="round"/>
<path d="M23.0625 14.5312C23.0625 16.0845 21.8033 17.3438 20.25 17.3438H3.75C2.1967 17.3438 0.9375 16.0845 0.9375 14.5312V3.75C0.9375 2.1967 2.1967 0.9375 3.75 0.9375H20.25C21.8033 0.9375 23.0625 2.1967 23.0625 3.75V9.79688" stroke="white" stroke-width="1.5" stroke-miterlimit="10" stroke-linecap="round" stroke-linejoin="round"/>
<path d="M6.32813 22.0781H0.9375" stroke="white" stroke-width="1.5" stroke-miterlimit="10" stroke-linecap="round" stroke-linejoin="round"/>
<path d="M23.0625 22.0781H11.0156" stroke="white" stroke-width="1.5" stroke-miterlimit="10" stroke-linecap="round" stroke-linejoin="round"/>
<path d="M4.45312 22.125C4.45312 21.0894 5.29256 20.25 6.32812 20.25C7.36369 20.25 8.20312 21.0894 8.20312 22.125C8.20312 23.1606 7.36369 24 6.32812 24C5.29256 24 4.45312 23.1606 4.45312 22.125Z" fill="white"/>
</g>
</svg>
