<svg width="22" height="22" viewBox="0 0 22 22" fill="none" xmlns="http://www.w3.org/2000/svg">
<g clip-path="url(#clip0_98_1030)">
<path d="M9.1665 22C7.27185 22 5.729 20.4582 5.729 18.5625C5.729 18.183 6.037 17.875 6.4165 17.875C6.79601 17.875 7.104 18.183 7.104 18.5625C7.104 19.7002 8.02985 20.625 9.1665 20.625C10.3032 20.625 11.229 19.7002 11.229 18.5625C11.229 18.183 11.537 17.875 11.9165 17.875C12.296 17.875 12.604 18.183 12.604 18.5625C12.604 20.4582 11.0613 22 9.1665 22Z" fill="white"/>
<path d="M16.7291 19.25H1.60411C0.719559 19.25 0 18.5304 0 17.6459C0 17.1764 0.204437 16.732 0.560944 16.4267C0.583939 16.4065 0.608612 16.3882 0.634293 16.3716C1.97992 15.1973 2.75 13.508 2.75 11.7241V9.16661C2.75 6.18113 4.77306 3.61811 7.66975 2.93329C8.04002 2.84803 8.41046 3.07445 8.49757 3.44489C8.58452 3.81432 8.35541 4.18459 7.98698 4.2717C5.71266 4.80881 4.125 6.8218 4.125 9.16661V11.7241C4.125 13.9388 3.15417 16.0344 1.46396 17.4725C1.4502 17.4836 1.43828 17.4937 1.42351 17.5037C1.39883 17.5349 1.375 17.5826 1.375 17.6459C1.375 17.7704 1.47957 17.875 1.60411 17.875H16.7291C16.8538 17.875 16.9584 17.7704 16.9584 17.6459C16.9584 17.5816 16.9346 17.5349 16.9089 17.5037C16.8951 17.4937 16.8822 17.4836 16.8694 17.4725C16.0482 16.7723 15.3999 15.9271 14.9436 14.96C14.7804 14.6171 14.9269 14.2074 15.2707 14.0442C15.6173 13.8811 16.0233 14.0296 16.1856 14.3724C16.5485 15.1388 17.0573 15.8117 17.7008 16.3745C17.7246 16.3909 17.7495 16.4084 17.7704 16.4267C18.129 16.732 18.3334 17.1764 18.3334 17.6459C18.3334 18.5304 17.6138 19.25 16.7291 19.25Z" fill="white"/>
<path d="M16.0417 11.9166C12.7565 11.9166 10.0835 9.24365 10.0835 5.95839C10.0835 2.67296 12.7565 0 16.0417 0C19.3271 0 22.0001 2.67296 22.0001 5.95839C22.0001 9.24365 19.3271 11.9166 16.0417 11.9166ZM16.0417 1.375C13.5145 1.375 11.4585 3.43112 11.4585 5.95839C11.4585 8.48566 13.5145 10.5416 16.0417 10.5416C18.569 10.5416 20.6251 8.48566 20.6251 5.95839C20.6251 3.43112 18.569 1.375 16.0417 1.375Z" fill="white"/>
<path d="M16.2709 8.70837C15.8914 8.70837 15.5834 8.40038 15.5834 8.02087V5.0416H15.125C14.7455 5.0416 14.4375 4.7336 14.4375 4.3541C14.4375 3.97459 14.7455 3.6666 15.125 3.6666H16.2709C16.6504 3.6666 16.9584 3.97459 16.9584 4.3541V8.02087C16.9584 8.40038 16.6504 8.70837 16.2709 8.70837Z" fill="white"/>
</g>
<defs>
<clipPath id="clip0_98_1030">
<rect width="22" height="22" fill="white"/>
</clipPath>
</defs>
</svg>
