<svg width="20" height="20" viewBox="0 0 20 20" fill="none" xmlns="http://www.w3.org/2000/svg">
<g clip-path="url(#clip0_19_728)">
<path d="M19.8251 18.98L14.9647 14.1197C16.2685 12.6208 17.0579 10.6652 17.0579 8.52772C17.0579 3.82262 13.2308 0 8.53016 0C3.82506 0 0.00244141 3.82705 0.00244141 8.52772C0.00244141 13.2284 3.82949 17.0554 8.53016 17.0554C10.6676 17.0554 12.6233 16.2661 14.1222 14.9623L18.9825 19.8226C19.0978 19.9379 19.253 20 19.4038 20C19.5545 20 19.7098 19.9424 19.8251 19.8226C20.0557 19.592 20.0557 19.2106 19.8251 18.98ZM1.19535 8.52772C1.19535 4.48337 4.48581 1.19734 8.52572 1.19734C12.5701 1.19734 15.8561 4.4878 15.8561 8.52772C15.8561 12.5676 12.5701 15.8625 8.52572 15.8625C4.48581 15.8625 1.19535 12.5721 1.19535 8.52772Z" fill="white"/>
</g>
<defs>
<clipPath id="clip0_19_728">
<rect width="20" height="20" fill="white"/>
</clipPath>
</defs>
</svg>
