<svg width="19" height="19" viewBox="0 0 19 19" fill="none" xmlns="http://www.w3.org/2000/svg">
<path d="M18.6969 17.9022L14.1126 13.3179C15.3423 11.9041 16.0868 10.0595 16.0868 8.04342C16.0868 3.60553 12.4771 0 8.04342 0C3.60553 0 0 3.60971 0 8.04342C0 12.4771 3.60971 16.0868 8.04342 16.0868C10.0595 16.0868 11.9041 15.3423 13.3179 14.1126L17.9022 18.6969C18.0109 18.8056 18.1573 18.8642 18.2995 18.8642C18.4417 18.8642 18.5881 18.8098 18.6969 18.6969C18.9144 18.4794 18.9144 18.1197 18.6969 17.9022ZM1.12516 8.04342C1.12516 4.22876 4.22876 1.12934 8.03924 1.12934C11.8539 1.12934 14.9533 4.23294 14.9533 8.04342C14.9533 11.8539 11.8539 14.9617 8.03924 14.9617C4.22876 14.9617 1.12516 11.8581 1.12516 8.04342Z" fill="white"/>
<path d="M13.6782 6.0077C13.83 6.32472 13.7032 6.71853 13.3949 6.88739C13.2406 6.97193 13.0706 6.98413 12.9198 6.93557C12.769 6.88701 12.638 6.77788 12.562 6.61917C11.1975 3.77 7.83449 2.68706 5.06408 4.2047C4.75582 4.37357 4.38294 4.2535 4.23114 3.93648C4.07934 3.61947 4.20615 3.22566 4.51442 3.05679C7.89987 1.20196 12.011 2.52581 13.6782 6.0077Z" fill="#FFB500"/>
</svg>
